<mxfile host="app.diagrams.net" modified="2023-05-11T20:58:17.200Z" agent="Mozilla/5.0 (Windows NT 10.0; Win64; x64; rv:112.0) Gecko/20100101 Firefox/112.0" etag="ivLnmUI4K5mHgV7fvQx_" version="21.2.9" type="device">
  <diagram id="4078iwhWGoRj34AY_e26" name="PÃ¡gina-1">
    <mxGraphModel dx="1971" dy="764" grid="1" gridSize="10" guides="1" tooltips="1" connect="1" arrows="1" fold="1" page="1" pageScale="1" pageWidth="827" pageHeight="1169" math="0" shadow="0">
      <root>
        <mxCell id="0" />
        <mxCell id="1" parent="0" />
        <mxCell id="r-MxsmEUI5-oT3r44p7l-59" value="" style="rounded=1;whiteSpace=wrap;html=1;fontSize=20;strokeColor=none;fillColor=#ffe6cc;opacity=70;glass=0;shadow=0;" vertex="1" parent="1">
          <mxGeometry x="467" y="570" width="333" height="250" as="geometry" />
        </mxCell>
        <mxCell id="88983EZOAUHpk7LaGvqL-35" value="" style="rounded=1;whiteSpace=wrap;html=1;fontSize=20;strokeColor=#9673a6;fillColor=#e1d5e7;" parent="1" vertex="1">
          <mxGeometry y="460" width="590" height="60" as="geometry" />
        </mxCell>
        <mxCell id="r-MxsmEUI5-oT3r44p7l-46" value="" style="rounded=1;whiteSpace=wrap;html=1;fontSize=20;strokeColor=#6c8ebf;fillColor=#dae8fc;opacity=70;" vertex="1" parent="1">
          <mxGeometry x="530" y="460" width="270" height="60" as="geometry" />
        </mxCell>
        <mxCell id="88983EZOAUHpk7LaGvqL-4" value="" style="sketch=0;pointerEvents=1;shadow=0;dashed=0;html=1;strokeColor=none;labelPosition=center;verticalLabelPosition=bottom;verticalAlign=top;outlineConnect=0;align=center;shape=mxgraph.office.concepts.folder;fillColor=#7FBA42;" parent="1" vertex="1">
          <mxGeometry x="190" y="90" width="76" height="70" as="geometry" />
        </mxCell>
        <mxCell id="r-MxsmEUI5-oT3r44p7l-2" style="edgeStyle=orthogonalEdgeStyle;rounded=0;orthogonalLoop=1;jettySize=auto;html=1;entryX=0.5;entryY=0;entryDx=0;entryDy=0;entryPerimeter=0;" edge="1" parent="1" source="88983EZOAUHpk7LaGvqL-5" target="r-MxsmEUI5-oT3r44p7l-1">
          <mxGeometry relative="1" as="geometry" />
        </mxCell>
        <mxCell id="88983EZOAUHpk7LaGvqL-5" value="" style="sketch=0;pointerEvents=1;shadow=0;dashed=0;html=1;strokeColor=none;labelPosition=center;verticalLabelPosition=bottom;verticalAlign=top;outlineConnect=0;align=center;shape=mxgraph.office.concepts.folder;fillColor=#2072B8;" parent="1" vertex="1">
          <mxGeometry x="-91.2" y="200" width="80" height="70" as="geometry" />
        </mxCell>
        <mxCell id="r-MxsmEUI5-oT3r44p7l-16" style="edgeStyle=orthogonalEdgeStyle;rounded=0;orthogonalLoop=1;jettySize=auto;html=1;entryX=0.5;entryY=0;entryDx=0;entryDy=0;entryPerimeter=0;" edge="1" parent="1" source="88983EZOAUHpk7LaGvqL-6" target="r-MxsmEUI5-oT3r44p7l-15">
          <mxGeometry relative="1" as="geometry" />
        </mxCell>
        <mxCell id="r-MxsmEUI5-oT3r44p7l-24" style="edgeStyle=orthogonalEdgeStyle;rounded=0;orthogonalLoop=1;jettySize=auto;html=1;" edge="1" parent="1" target="r-MxsmEUI5-oT3r44p7l-22">
          <mxGeometry relative="1" as="geometry">
            <mxPoint x="490" y="310" as="sourcePoint" />
          </mxGeometry>
        </mxCell>
        <mxCell id="88983EZOAUHpk7LaGvqL-6" value="" style="sketch=0;pointerEvents=1;shadow=0;dashed=0;html=1;strokeColor=none;labelPosition=center;verticalLabelPosition=bottom;verticalAlign=top;outlineConnect=0;align=center;shape=mxgraph.office.concepts.folder;fillColor=#DA4026;" parent="1" vertex="1">
          <mxGeometry x="450" y="200" width="80" height="70" as="geometry" />
        </mxCell>
        <mxCell id="88983EZOAUHpk7LaGvqL-7" value="&lt;font size=&quot;1&quot; color=&quot;#009900&quot;&gt;&lt;b&gt;&lt;i style=&quot;font-size: 22px;&quot;&gt;PECL&lt;/i&gt;&lt;/b&gt;&lt;/font&gt;" style="text;html=1;strokeColor=none;fillColor=none;align=center;verticalAlign=middle;whiteSpace=wrap;rounded=0;" parent="1" vertex="1">
          <mxGeometry x="158" y="40" width="140" height="40" as="geometry" />
        </mxCell>
        <mxCell id="88983EZOAUHpk7LaGvqL-8" value="" style="endArrow=classic;html=1;rounded=0;fontSize=20;fontColor=#009900;" parent="1" source="88983EZOAUHpk7LaGvqL-4" target="88983EZOAUHpk7LaGvqL-6" edge="1">
          <mxGeometry width="50" height="50" relative="1" as="geometry">
            <mxPoint x="390" y="410" as="sourcePoint" />
            <mxPoint x="440" y="360" as="targetPoint" />
          </mxGeometry>
        </mxCell>
        <mxCell id="88983EZOAUHpk7LaGvqL-9" value="" style="endArrow=classic;html=1;rounded=0;fontSize=20;fontColor=#009900;" parent="1" source="88983EZOAUHpk7LaGvqL-4" target="88983EZOAUHpk7LaGvqL-5" edge="1">
          <mxGeometry width="50" height="50" relative="1" as="geometry">
            <mxPoint x="168.19999999999996" y="190" as="sourcePoint" />
            <mxPoint x="222.60000000000005" y="270" as="targetPoint" />
          </mxGeometry>
        </mxCell>
        <mxCell id="88983EZOAUHpk7LaGvqL-10" value="&lt;font color=&quot;#000099&quot;&gt;Cliente&lt;/font&gt;" style="text;html=1;strokeColor=none;fillColor=none;align=center;verticalAlign=middle;whiteSpace=wrap;rounded=0;fontSize=20;fontColor=#009900;" parent="1" vertex="1">
          <mxGeometry x="-116.2" y="160" width="130" height="40" as="geometry" />
        </mxCell>
        <mxCell id="88983EZOAUHpk7LaGvqL-11" value="&lt;font color=&quot;#ff9999&quot;&gt;Servidor&lt;/font&gt;" style="text;html=1;strokeColor=none;fillColor=none;align=center;verticalAlign=middle;whiteSpace=wrap;rounded=0;fontSize=20;fontColor=#009900;" parent="1" vertex="1">
          <mxGeometry x="425" y="160" width="130" height="40" as="geometry" />
        </mxCell>
        <mxCell id="r-MxsmEUI5-oT3r44p7l-5" style="edgeStyle=orthogonalEdgeStyle;rounded=0;orthogonalLoop=1;jettySize=auto;html=1;entryX=0.5;entryY=0;entryDx=0;entryDy=0;entryPerimeter=0;" edge="1" parent="1" source="r-MxsmEUI5-oT3r44p7l-1" target="r-MxsmEUI5-oT3r44p7l-4">
          <mxGeometry relative="1" as="geometry" />
        </mxCell>
        <mxCell id="r-MxsmEUI5-oT3r44p7l-28" style="edgeStyle=orthogonalEdgeStyle;rounded=0;orthogonalLoop=1;jettySize=auto;html=1;" edge="1" parent="1" source="r-MxsmEUI5-oT3r44p7l-1" target="r-MxsmEUI5-oT3r44p7l-26">
          <mxGeometry relative="1" as="geometry" />
        </mxCell>
        <mxCell id="r-MxsmEUI5-oT3r44p7l-1" value="" style="verticalLabelPosition=bottom;html=1;verticalAlign=top;align=center;strokeColor=#6c8ebf;fillColor=#dae8fc;shape=mxgraph.azure.cloud_service_package_file;aspect=fixed;" vertex="1" parent="1">
          <mxGeometry x="-78.83000000000001" y="350" width="55.25" height="65" as="geometry" />
        </mxCell>
        <mxCell id="r-MxsmEUI5-oT3r44p7l-3" value="&lt;font color=&quot;#000099&quot;&gt;Parte 2&lt;/font&gt;" style="text;html=1;strokeColor=none;fillColor=none;align=center;verticalAlign=middle;whiteSpace=wrap;rounded=0;fontSize=20;fontColor=#009900;" vertex="1" parent="1">
          <mxGeometry x="-71.19999999999999" y="315" width="130" height="40" as="geometry" />
        </mxCell>
        <mxCell id="r-MxsmEUI5-oT3r44p7l-4" value="" style="sketch=0;aspect=fixed;pointerEvents=1;shadow=0;dashed=0;html=1;strokeColor=none;labelPosition=center;verticalLabelPosition=bottom;verticalAlign=top;align=center;fillColor=#00188D;shape=mxgraph.mscae.enterprise.code_file" vertex="1" parent="1">
          <mxGeometry x="-150" y="460" width="58.8" height="60" as="geometry" />
        </mxCell>
        <mxCell id="r-MxsmEUI5-oT3r44p7l-7" value="&lt;font color=&quot;#000099&quot;&gt;GUICliente.java&lt;/font&gt;" style="text;html=1;strokeColor=none;fillColor=none;align=center;verticalAlign=middle;whiteSpace=wrap;rounded=0;fontSize=20;fontColor=#009900;" vertex="1" parent="1">
          <mxGeometry x="-35.60000000000002" y="528" width="130" height="40" as="geometry" />
        </mxCell>
        <mxCell id="r-MxsmEUI5-oT3r44p7l-8" value="&lt;font color=&quot;#000099&quot;&gt;PECLCliente.java&lt;/font&gt;" style="text;html=1;strokeColor=none;fillColor=none;align=center;verticalAlign=middle;whiteSpace=wrap;rounded=0;fontSize=20;fontColor=#009900;" vertex="1" parent="1">
          <mxGeometry x="-208.82999999999998" y="528" width="130" height="40" as="geometry" />
        </mxCell>
        <mxCell id="r-MxsmEUI5-oT3r44p7l-14" style="edgeStyle=orthogonalEdgeStyle;rounded=0;orthogonalLoop=1;jettySize=auto;html=1;" edge="1" parent="1" source="r-MxsmEUI5-oT3r44p7l-9" target="88983EZOAUHpk7LaGvqL-26">
          <mxGeometry relative="1" as="geometry" />
        </mxCell>
        <mxCell id="r-MxsmEUI5-oT3r44p7l-9" value="" style="verticalLabelPosition=bottom;html=1;verticalAlign=top;align=center;strokeColor=#d6b656;fillColor=#fff2cc;shape=mxgraph.azure.cloud_service_package_file;aspect=fixed;" vertex="1" parent="1">
          <mxGeometry x="225.29" y="350" width="55.25" height="65" as="geometry" />
        </mxCell>
        <mxCell id="r-MxsmEUI5-oT3r44p7l-12" style="edgeStyle=orthogonalEdgeStyle;rounded=0;orthogonalLoop=1;jettySize=auto;html=1;entryX=0;entryY=0.5;entryDx=0;entryDy=0;entryPerimeter=0;exitX=1;exitY=0.5;exitDx=0;exitDy=0;exitPerimeter=0;" edge="1" parent="1" source="r-MxsmEUI5-oT3r44p7l-1" target="r-MxsmEUI5-oT3r44p7l-9">
          <mxGeometry relative="1" as="geometry">
            <mxPoint x="414" y="330" as="sourcePoint" />
            <mxPoint x="323" y="407" as="targetPoint" />
          </mxGeometry>
        </mxCell>
        <mxCell id="88983EZOAUHpk7LaGvqL-26" value="" style="verticalLabelPosition=bottom;html=1;verticalAlign=top;strokeWidth=1;align=center;outlineConnect=0;dashed=0;outlineConnect=0;shape=mxgraph.aws3d.file;aspect=fixed;strokeColor=#292929;" parent="1" vertex="1">
          <mxGeometry x="239.82000000000002" y="460" width="26.18" height="60" as="geometry" />
        </mxCell>
        <mxCell id="r-MxsmEUI5-oT3r44p7l-17" style="edgeStyle=orthogonalEdgeStyle;rounded=0;orthogonalLoop=1;jettySize=auto;html=1;entryX=1;entryY=0.5;entryDx=0;entryDy=0;entryPerimeter=0;" edge="1" parent="1" source="r-MxsmEUI5-oT3r44p7l-15" target="r-MxsmEUI5-oT3r44p7l-9">
          <mxGeometry relative="1" as="geometry" />
        </mxCell>
        <mxCell id="r-MxsmEUI5-oT3r44p7l-15" value="" style="verticalLabelPosition=bottom;html=1;verticalAlign=top;align=center;strokeColor=#b85450;fillColor=#f8cecc;shape=mxgraph.azure.cloud_service_package_file;aspect=fixed;" vertex="1" parent="1">
          <mxGeometry x="394.75" y="350" width="55.25" height="65" as="geometry" />
        </mxCell>
        <mxCell id="r-MxsmEUI5-oT3r44p7l-18" value="&lt;font color=&quot;#000099&quot;&gt;Interfaces&lt;/font&gt;" style="text;html=1;strokeColor=none;fillColor=none;align=center;verticalAlign=middle;whiteSpace=wrap;rounded=0;fontSize=20;fontColor=#009900;" vertex="1" parent="1">
          <mxGeometry x="206.27" y="320" width="93.29" height="30" as="geometry" />
        </mxCell>
        <mxCell id="r-MxsmEUI5-oT3r44p7l-19" value="&lt;font color=&quot;#000099&quot;&gt;VistaClienteRMI.java&lt;/font&gt;" style="text;html=1;strokeColor=none;fillColor=none;align=center;verticalAlign=middle;whiteSpace=wrap;rounded=0;fontSize=20;fontColor=#009900;" vertex="1" parent="1">
          <mxGeometry x="187.91" y="528" width="130" height="40" as="geometry" />
        </mxCell>
        <mxCell id="r-MxsmEUI5-oT3r44p7l-21" value="&lt;font color=&quot;#000099&quot;&gt;Parte 2&lt;/font&gt;" style="text;html=1;strokeColor=none;fillColor=none;align=center;verticalAlign=middle;whiteSpace=wrap;rounded=0;fontSize=20;fontColor=#009900;" vertex="1" parent="1">
          <mxGeometry x="324" y="315" width="90" height="40" as="geometry" />
        </mxCell>
        <mxCell id="r-MxsmEUI5-oT3r44p7l-31" style="edgeStyle=orthogonalEdgeStyle;rounded=0;orthogonalLoop=1;jettySize=auto;html=1;" edge="1" parent="1" source="r-MxsmEUI5-oT3r44p7l-22" target="r-MxsmEUI5-oT3r44p7l-29">
          <mxGeometry relative="1" as="geometry" />
        </mxCell>
        <mxCell id="r-MxsmEUI5-oT3r44p7l-43" style="edgeStyle=orthogonalEdgeStyle;rounded=0;orthogonalLoop=1;jettySize=auto;html=1;entryX=0;entryY=0.5;entryDx=0;entryDy=0;entryPerimeter=0;" edge="1" parent="1" source="r-MxsmEUI5-oT3r44p7l-22" target="r-MxsmEUI5-oT3r44p7l-42">
          <mxGeometry relative="1" as="geometry" />
        </mxCell>
        <mxCell id="r-MxsmEUI5-oT3r44p7l-22" value="" style="verticalLabelPosition=bottom;html=1;verticalAlign=top;align=center;strokeColor=#b85450;fillColor=#f8cecc;shape=mxgraph.azure.cloud_service_package_file;aspect=fixed;" vertex="1" parent="1">
          <mxGeometry x="530" y="350" width="55.25" height="65" as="geometry" />
        </mxCell>
        <mxCell id="r-MxsmEUI5-oT3r44p7l-25" value="&lt;font color=&quot;#000099&quot;&gt;Parte 1&lt;br&gt;&lt;/font&gt;" style="text;html=1;strokeColor=none;fillColor=none;align=center;verticalAlign=middle;whiteSpace=wrap;rounded=0;fontSize=20;fontColor=#009900;" vertex="1" parent="1">
          <mxGeometry x="570" y="315" width="90" height="40" as="geometry" />
        </mxCell>
        <mxCell id="r-MxsmEUI5-oT3r44p7l-26" value="" style="sketch=0;aspect=fixed;pointerEvents=1;shadow=0;dashed=0;html=1;strokeColor=none;labelPosition=center;verticalLabelPosition=bottom;verticalAlign=top;align=center;fillColor=#00188D;shape=mxgraph.mscae.enterprise.code_file" vertex="1" parent="1">
          <mxGeometry y="460" width="58.8" height="60" as="geometry" />
        </mxCell>
        <mxCell id="r-MxsmEUI5-oT3r44p7l-29" value="" style="sketch=0;aspect=fixed;pointerEvents=1;shadow=0;dashed=0;html=1;strokeColor=none;labelPosition=center;verticalLabelPosition=bottom;verticalAlign=top;align=center;fillColor=#00188D;shape=mxgraph.mscae.enterprise.code_file" vertex="1" parent="1">
          <mxGeometry x="528.22" y="460" width="58.8" height="60" as="geometry" />
        </mxCell>
        <mxCell id="r-MxsmEUI5-oT3r44p7l-30" value="&lt;font color=&quot;#000099&quot;&gt;HormigaController.java&lt;/font&gt;" style="text;html=1;strokeColor=none;fillColor=none;align=center;verticalAlign=middle;whiteSpace=wrap;rounded=0;fontSize=20;fontColor=#009900;" vertex="1" parent="1">
          <mxGeometry x="414" y="528" width="232.62" height="40" as="geometry" />
        </mxCell>
        <mxCell id="r-MxsmEUI5-oT3r44p7l-47" style="edgeStyle=orthogonalEdgeStyle;rounded=0;orthogonalLoop=1;jettySize=auto;html=1;" edge="1" parent="1" source="r-MxsmEUI5-oT3r44p7l-42" target="r-MxsmEUI5-oT3r44p7l-44">
          <mxGeometry relative="1" as="geometry" />
        </mxCell>
        <mxCell id="r-MxsmEUI5-oT3r44p7l-42" value="" style="verticalLabelPosition=bottom;html=1;verticalAlign=top;align=center;strokeColor=#d6b656;fillColor=#fff2cc;shape=mxgraph.azure.cloud_service_package_file;aspect=fixed;" vertex="1" parent="1">
          <mxGeometry x="750" y="350" width="55.25" height="65" as="geometry" />
        </mxCell>
        <mxCell id="r-MxsmEUI5-oT3r44p7l-44" value="" style="verticalLabelPosition=bottom;html=1;verticalAlign=top;strokeWidth=1;align=center;outlineConnect=0;dashed=0;outlineConnect=0;shape=mxgraph.aws3d.file;aspect=fixed;strokeColor=#292929;" vertex="1" parent="1">
          <mxGeometry x="764.5300000000001" y="460" width="26.18" height="60" as="geometry" />
        </mxCell>
        <mxCell id="r-MxsmEUI5-oT3r44p7l-45" value="&lt;font color=&quot;#000099&quot;&gt;Hormiga.java&lt;/font&gt;" style="text;html=1;strokeColor=none;fillColor=none;align=center;verticalAlign=middle;whiteSpace=wrap;rounded=0;fontSize=20;fontColor=#009900;" vertex="1" parent="1">
          <mxGeometry x="656.0000000000001" y="528" width="118.68" height="40" as="geometry" />
        </mxCell>
        <mxCell id="r-MxsmEUI5-oT3r44p7l-48" value="&lt;font color=&quot;#000099&quot;&gt;Interfaces&lt;/font&gt;" style="text;html=1;strokeColor=none;fillColor=none;align=center;verticalAlign=middle;whiteSpace=wrap;rounded=0;fontSize=20;fontColor=#009900;" vertex="1" parent="1">
          <mxGeometry x="660" y="380" width="90" height="40" as="geometry" />
        </mxCell>
        <mxCell id="r-MxsmEUI5-oT3r44p7l-49" value="" style="sketch=0;aspect=fixed;pointerEvents=1;shadow=0;dashed=0;html=1;strokeColor=none;labelPosition=center;verticalLabelPosition=bottom;verticalAlign=top;align=center;fillColor=#00188D;shape=mxgraph.mscae.enterprise.code_file" vertex="1" parent="1">
          <mxGeometry x="691.2" y="620" width="58.8" height="60" as="geometry" />
        </mxCell>
        <mxCell id="r-MxsmEUI5-oT3r44p7l-50" value="" style="sketch=0;aspect=fixed;pointerEvents=1;shadow=0;dashed=0;html=1;strokeColor=none;labelPosition=center;verticalLabelPosition=bottom;verticalAlign=top;align=center;fillColor=#00188D;shape=mxgraph.mscae.enterprise.code_file" vertex="1" parent="1">
          <mxGeometry x="691.2" y="690" width="58.8" height="60" as="geometry" />
        </mxCell>
        <mxCell id="r-MxsmEUI5-oT3r44p7l-51" value="" style="sketch=0;aspect=fixed;pointerEvents=1;shadow=0;dashed=0;html=1;strokeColor=none;labelPosition=center;verticalLabelPosition=bottom;verticalAlign=top;align=center;fillColor=#00188D;shape=mxgraph.mscae.enterprise.code_file" vertex="1" parent="1">
          <mxGeometry x="691.2" y="760" width="58.8" height="60" as="geometry" />
        </mxCell>
        <mxCell id="r-MxsmEUI5-oT3r44p7l-55" value="&lt;font color=&quot;#000099&quot;&gt;HormigaObrera.java&lt;/font&gt;" style="text;html=1;strokeColor=none;fillColor=none;align=center;verticalAlign=middle;whiteSpace=wrap;rounded=0;fontSize=20;fontColor=#009900;" vertex="1" parent="1">
          <mxGeometry x="520" y="630" width="118.68" height="40" as="geometry" />
        </mxCell>
        <mxCell id="r-MxsmEUI5-oT3r44p7l-56" value="&lt;font color=&quot;#000099&quot;&gt;HormigaSoldado.java&lt;/font&gt;" style="text;html=1;strokeColor=none;fillColor=none;align=center;verticalAlign=middle;whiteSpace=wrap;rounded=0;fontSize=20;fontColor=#009900;" vertex="1" parent="1">
          <mxGeometry x="480.5" y="700" width="197.68" height="40" as="geometry" />
        </mxCell>
        <mxCell id="r-MxsmEUI5-oT3r44p7l-57" value="&lt;font color=&quot;#000099&quot;&gt;HormigaCria.java&lt;/font&gt;" style="text;html=1;strokeColor=none;fillColor=none;align=center;verticalAlign=middle;whiteSpace=wrap;rounded=0;fontSize=20;fontColor=#009900;" vertex="1" parent="1">
          <mxGeometry x="520" y="770" width="118.68" height="40" as="geometry" />
        </mxCell>
        <mxCell id="r-MxsmEUI5-oT3r44p7l-61" value="&lt;font color=&quot;#000099&quot;&gt;MODELO&lt;/font&gt;" style="text;html=1;strokeColor=none;fillColor=none;align=center;verticalAlign=middle;whiteSpace=wrap;rounded=0;fontSize=20;fontColor=#009900;" vertex="1" parent="1">
          <mxGeometry x="660" y="565" width="120" height="40" as="geometry" />
        </mxCell>
        <mxCell id="r-MxsmEUI5-oT3r44p7l-64" value="" style="endArrow=none;html=1;rounded=0;" edge="1" parent="1" target="r-MxsmEUI5-oT3r44p7l-44">
          <mxGeometry width="50" height="50" relative="1" as="geometry">
            <mxPoint x="780" y="800" as="sourcePoint" />
            <mxPoint x="560" y="630" as="targetPoint" />
          </mxGeometry>
        </mxCell>
        <mxCell id="r-MxsmEUI5-oT3r44p7l-65" style="edgeStyle=orthogonalEdgeStyle;rounded=0;orthogonalLoop=1;jettySize=auto;html=1;entryX=1;entryY=0.5;entryDx=0;entryDy=0;entryPerimeter=0;" edge="1" parent="1" target="r-MxsmEUI5-oT3r44p7l-49">
          <mxGeometry relative="1" as="geometry">
            <mxPoint x="780" y="650" as="sourcePoint" />
            <mxPoint x="760" y="650" as="targetPoint" />
            <Array as="points">
              <mxPoint x="780" y="651" />
            </Array>
          </mxGeometry>
        </mxCell>
        <mxCell id="r-MxsmEUI5-oT3r44p7l-66" style="edgeStyle=orthogonalEdgeStyle;rounded=0;orthogonalLoop=1;jettySize=auto;html=1;entryX=1;entryY=0.5;entryDx=0;entryDy=0;entryPerimeter=0;" edge="1" parent="1">
          <mxGeometry relative="1" as="geometry">
            <mxPoint x="780" y="720" as="sourcePoint" />
            <mxPoint x="750" y="720" as="targetPoint" />
            <Array as="points">
              <mxPoint x="780" y="721" />
            </Array>
          </mxGeometry>
        </mxCell>
        <mxCell id="r-MxsmEUI5-oT3r44p7l-67" style="edgeStyle=orthogonalEdgeStyle;rounded=0;orthogonalLoop=1;jettySize=auto;html=1;entryX=1;entryY=0.5;entryDx=0;entryDy=0;entryPerimeter=0;" edge="1" parent="1">
          <mxGeometry relative="1" as="geometry">
            <mxPoint x="781" y="798" as="sourcePoint" />
            <mxPoint x="751" y="798" as="targetPoint" />
            <Array as="points">
              <mxPoint x="781" y="799" />
            </Array>
          </mxGeometry>
        </mxCell>
      </root>
    </mxGraphModel>
  </diagram>
</mxfile>
